<svg xmlns="http://www.w3.org/2000/svg" width="63.17" height="80" viewBox="48 266 63.17 80"><g data-name="Stock monkey thinking" fill-rule="evenodd"><path d="M81.373 325.212s-17.78 5.606-18.527-14.078c-2.741-1.494-4.36-3.862-4.36-3.862s-10.34-2.616-8.97-10.34c1.37-7.724 12.333-3.862 12.333-3.862s-.125-12.458 16.694-8.346c6.602-1.87 15.447-2.99 17.565 5.232 2.367-.872 13.953-2.492 13.455 3.987-.997 9.468-10.839 11.212-10.839 11.212s-3.488 16.195-9.218 20.057c-5.357 1.37-8.133 0-8.133 0z" fill="#fff" data-name="Path 1131"/><path d="M71.782 302.212c.863 0 1.564-1.478 1.564-3.3 0-1.823-.7-3.302-1.564-3.302-.863 0-1.563 1.479-1.563 3.301 0 1.823.7 3.3 1.563 3.3z" fill="#0a0b0d" data-name="Path 1035"/><path d="M87.383 302.212c.864 0 1.564-1.478 1.564-3.3 0-1.823-.7-3.302-1.564-3.302-.863 0-1.563 1.479-1.563 3.301 0 1.823.7 3.3 1.563 3.3z" fill="#0a0b0d" data-name="Path 1036"/><path d="M108.37 296.553c-.652 2.953-3.558 5.585-6.872 6.433a82.057 82.057 0 00-3.158-11.524 9.892 9.892 0 013.796-1.046 8.42 8.42 0 01.567-.02c1.966 0 3.66.676 4.704 1.895.97 1.139 1.307 2.646.95 4.262h.013zm-18.214 8.072c2.49 2.382 4.05 5.58 4.05 9.166 0 2.354-.545 3.948-.549 3.946-.799 2.312-2.93 4.522-5.515 4.585-3.272.078-5.236-2.878-5.871-5.845a15.553 15.553 0 01-3.325.356c.158 4.77-2.503 7.49-5.764 7.49-2.358 0-4.448-1.871-4.855-2.302-2.922-3.053-3.187-7.582-3.187-8.223a13.242 13.242 0 012.986-8.487c-3.849-1.356-5.338-4.707-5.13-8.846.284-5.515 1.118-10.573 7.9-10.17a9.054 9.054 0 013.202.798 10.713 10.713 0 009.963-.582 9.06 9.06 0 013.088-1.164c6.691-1.19 8.104 3.737 9.03 9.183.79 4.728-.81 8.687-6.034 10.098l.01-.003zm-39.14-4.374c-.562-1.56-.421-3.103.397-4.352.964-1.47 2.783-2.394 4.982-2.537.203-.012.406-.02.608-.02a9.97 9.97 0 013.135.515 85.589 85.589 0 00-2.779 11.642c-2.887-.755-5.453-2.77-6.342-5.248zm58.416-9.697c-1.695-1.976-4.417-2.997-7.472-2.8-1.595.107-3.154.52-4.593 1.215-1.213-2.921-2.669-5.693-4.423-8.055l.073.069s2.416-1.025 2.186-3.36c-.22-2.265-3.444-2.454-3.444-2.454 2.59-.356 2.544-3.36 2.544-3.36-2.815.64-4.063-.547-4.063-.547 4.314-1.387 2.709-5.262 2.709-5.262s-1 1.21-5.3 1.407a7.634 7.634 0 00-5.542 2.802c.88-1.637-.976-3.624-.976-3.624-.296 1.322-2.196 3.425-5.633 3.314-4.11-.13-7.825 1.46-10.37 5.775-1.8 3.062-1.104 6.695-.664 8.262a45.149 45.149 0 00-3.451 7.403 12.493 12.493 0 00-4.784-.637c-3.053.196-5.622 1.558-7.05 3.736-1.289 1.957-1.531 4.354-.677 6.718 1.226 3.398 4.614 6.075 8.444 6.99l-.068.478c-.441 3.156.996 4.672 4.738 5.939l.695.208c0 .32-.01.644 0 .968.159 4.236 1.968 7.705 5.234 10.03 1.538 1.096 3.43 1.736 5.459 2.436 2.375.818 3.024 1.909 2.438 4.27 0 0 3.203 1.152 4.222-2 0 0 1.677 4.519 5.832 3.515 0 0-.51-2.459-.011-3.68.578-.992 1.31.33 1.327.355a2.277 2.277 0 002.49.932c-.615-1.067-.956-2.023-.14-3.111.516-.614 2.984-2.995 3.617-3.663 2.583-2.722 4.313-5.909 4.243-10.04l.712-.213c2.699-.874 5.203-2.806 4.732-5.973-.137-.923-.297-1.92-.482-2.976 4.343-1.05 8.1-4.486 8.983-8.482.538-2.464.004-4.802-1.535-6.587v.002z" fill="#0a0b0d" data-name="Path 1037"/><path d="M77.664 305.77c.17.501-.41.917-1.27.983-.86.066-1.836-.233-2.22-.711-.44-.556.044-1.134 1.14-1.217 1.096-.083 2.16.372 2.35.944z" fill="#0a0b0d" data-name="Path 1038"/><path d="M85.232 305.196c-.307.534-1.227.98-2.086 1.045-.859.066-1.494-.26-1.405-.781.101-.594 1.083-1.211 2.18-1.295 1.095-.084 1.662.416 1.31 1.031z" fill="#0a0b0d" data-name="Path 1039"/><path d="M75.467 292.727c-.322 0-.64-.152-.838-.437-.838-1.2-1.768-1.858-2.766-1.955-1.62-.155-3.04 1.172-3.054 1.186a1.021 1.021 0 01-1.421-1.466c.084-.082 2.096-2 4.67-1.752 1.621.156 3.05 1.105 4.245 2.82a1.02 1.02 0 01-.836 1.604z" fill="#0a0b0d" data-name="Path 1127"/><path d="M83.307 295.604a1.021 1.021 0 01-.278-2.004c5.161-1.458 8.544-.62 8.685-.583a1.021 1.021 0 01-.505 1.978c-.048-.012-3.05-.723-7.625.57a1.023 1.023 0 01-.277.039z" fill="#0a0b0d" data-name="Path 1128"/><path d="M87.267 315.605c-.198 0-.399-.057-.575-.177-2.218-1.516-4.742-2.125-7.502-1.81-2.105.241-3.568.956-3.582.964a1.021 1.021 0 01-.914-1.826c.07-.035 1.74-.863 4.18-1.156 3.247-.39 6.348.35 8.97 2.142a1.02 1.02 0 01-.577 1.863z" fill="#0a0b0d" data-name="Path 1129"/><path d="M76.429 334.519l-2.552-4.217c-1.197-1.978-2.42-3.988-4.145-5.526-.758-.675-1.656-1.328-1.903-2.312-.207-.822.113-1.709.654-2.36.541-.652 1.283-1.104 2.032-1.5.304-.161.62-.318.964-.35.673-.065 1.294.355 1.787.816 1.727 1.619 2.65 3.898 4.03 5.82.267.37.625.764 1.078.744.265-.01.503-.165.712-.328.846-.659 1.492-1.543 2.319-2.224 1.263-1.042 2.871-1.555 4.282-2.386 2.155-1.27 3.814-3.263 5.998-4.48.544-.303 1.22-.554 1.77-.262.33.176.538.51.722.84.538.959 1.01 2.073.708 3.13-.313 1.098-1.354 1.796-2.305 2.425a62.749 62.749 0 00-3.88 2.79c-.313.243-.648.53-.695.924-.032.266.076.527.183.774l1.177 2.721c.274.633.55 1.27.94 1.84.43.629.993 1.163 1.392 1.814.493.803.715 1.751 1.216 2.552.65 1.037 1.767 1.837 1.992 3.04.201 1.078-.414 2.174-1.273 2.855-.858.68-1.928 1.025-2.97 1.357l-3.96 1.26c-.643.205-1.314.412-1.984.314-.67-.099-1.239-.485-1.778-.88-2.447-1.79-4.695-4.11-5.487-7.036-.38-1.407-.55-3.115-1.823-3.823" fill="#fff" data-name="Path 1043"/><path d="M96.416 319.36c.123-.646-.07-1.096-.256-1.36l-1.565-2.227c-.185-.264-.543-.6-1.194-.703-1.034-.166-2.5.347-3.826 1.339l-10.94 8.178a37.63 37.63 0 00-1.993-3.025c-1.704-2.321-3.142-3.63-4.395-4.002-.936-.278-2.024-.114-3.062.461-.922.51-1.719 1.302-2.187 2.173-.794 1.48-.564 2.953.617 3.943 2.786 2.337 5.278 6.52 5.309 6.572.053.091.12.168.196.23a7.822 7.822 0 00.027 2.077c.057.42.143.852.255 1.29-.496 1.002-1.974 1.8-1.974 1.8.777.73 2.482.964 2.482.964-.237.644-.01 2.025-.01 2.025.451-.276.965-.368 1.424-.379.21.34.432.679.666 1.013 1.286 1.829 2.827 3.348 4.454 4.392 1.075.69 2.119 1.127 3.083 1.3a2.084 2.084 0 002.292.4l.008-.003 8.537-3.886c.719-.327 1.267-.908 1.504-1.595.2-.579.16-1.184-.111-1.706l-1.187-2.276a2.124 2.124 0 00-1.16-1.01c.012-.037.024-.073.034-.11a2.14 2.14 0 00-.187-1.691l-1.313-2.26a2.126 2.126 0 00-1.271-.973 2.151 2.151 0 00-.284-1.61l-1.439-2.243a2.097 2.097 0 00-.392-.452l5.301-3.5c1.382-.912 2.362-2.117 2.557-3.146zm-27.671 3.43c-.524-.44-.591-1.033-.198-1.764.65-1.21 2.206-2.077 3.2-1.781 1.591.472 4.197 4.17 5.465 6.39l.007.011-2.236 1.672c-.533.399-.967.89-1.24 1.397-.977-1.485-2.873-4.142-4.998-5.925zm25.453 16.653c.047.09.05.199.008.32-.08.23-.292.443-.57.569l-8.532 3.883a.335.335 0 01-.429-.15l-.905-1.732a.334.334 0 01.121-.437l8.071-4.776c.263-.156.559-.21.792-.143.123.035.21.1.257.19l1.187 2.276zm-2.46-5.016c.049.084.056.19.02.315-.076.256-.312.513-.618.67l-8.799 4.521c-.176.09-.402.036-.492-.119l-1.001-1.723c-.09-.155-.026-.378.14-.486l8.285-5.407c.223-.146.477-.226.7-.226.066 0 .128.007.187.021.126.03.215.089.264.174l1.314 2.26zm-4.793-7.202c.116-.01.4-.012.525.182l1.44 2.244c.056.088.068.199.036.33-.066.27-.3.548-.607.724l-8.76 5c-.184.106-.427.058-.53-.105l-1.099-1.71c-.153-.238-.146-.706-.05-.817a.875.875 0 00.208-.218 4.96 4.96 0 00.547-.312l8.071-5.328a.936.936 0 00.219.01zm-9.258 3.85c-.653.43-1.208.474-1.366.42l-1.142-1.627c.003-.166.23-.674.857-1.143l14.591-10.908c1.26-.941 2.305-1.094 2.552-1l1.519 2.16c.002.265-.497 1.198-1.807 2.062l-15.204 10.037z" fill="#0a0b0d" data-name="Path 1130"/><path d="M85.988 316.464c.066-.135.114-.25.155-.36l.057-.16c.019-.049.036-.098.052-.149.034-.093.062-.188.092-.272.015-.04.028-.086.041-.128a1.47 1.47 0 01.043-.119c.097-.295.221-.581.37-.854.164-.295.36-.57.586-.82a3.74 3.74 0 01.433-.439c.081-.076.167-.153.267-.23a2.86 2.86 0 01.336-.233c.085.107.16.222.222.344.058.112.109.227.152.346a2.917 2.917 0 01.123.696 2.6 2.6 0 01-.34 1.337 2.476 2.476 0 01-1.045 1.014 1.987 1.987 0 01-.75.204c-.134.009-.27.001-.402-.024a1.053 1.053 0 01-.392-.153z" data-name="Path 1052"/></g></svg>