<svg xmlns="http://www.w3.org/2000/svg" width="136.978" height="147.538" viewBox="53 0 136.978 147.538"><g data-name="Group 471"><path d="m76.417 90.463-14.752-7.537s-8.43-8.94-4.567-19.633c3.864-10.692 25.466-5.258 25.466-5.258l3.688-9.992s12.119-14.9 30.91-5.784c14.578-4.207 31.965-7.538 38.639 4.031 6.673 11.57 3.336 6.31 3.336 6.31l10.89-2.103s26.519.176 12.469 24.54c-13.875 10.168-21.251 9.992-21.251 9.992l-3.864 20.334s-6.498 29.448-30.559 22.261c-19.846 3.331-33.193 1.228-37.584-11.92-4.39-13.146-5.269-22.787-5.269-22.787l-7.552-2.454Z" fill="#fff" fill-rule="evenodd" data-name="Path 25"/><path d="M146.573 92.735a3.655 3.655 0 0 0-.617-1.502 4.267 4.267 0 0 0-1.196-1.156 4.722 4.722 0 0 0-5.518.54c.772.346 1.428.577 2.045.808-.04.099-.065.203-.077.308-.81 6.239-11.113 8.473-19.64 9.243-6.535.533-13.102.545-19.64.038a1.897 1.897 0 0 0-1.35.424 1.793 1.793 0 0 0-.656 1.27c-.039.488.114.971.424 1.349a1.8 1.8 0 0 0 1.274.654c.27.039 4.475.386 10.186.386 3.048 0 6.56-.116 10.11-.424 13.466-1.232 21.105-4.968 22.765-11.168.461.635.874 1.305 1.234 2.002.31-.385.533-.831.656-1.309a4.651 4.651 0 0 0 0-1.463Z" fill="#0a0b0d" fill-rule="evenodd" data-name="Path 17"/><path d="M186.239 53.184c-3.666-4.275-9.57-6.509-16.206-6.047a27.05 27.05 0 0 0-9.955 2.62c-2.624-6.317-5.788-12.324-9.608-17.446l.155.154s5.247-2.234 4.746-7.279c-.463-4.89-7.486-5.314-7.486-5.314 5.634-.77 5.518-7.279 5.518-7.279-6.097 1.386-8.798-1.194-8.798-1.194C153.982 8.395 150.47 0 150.47 0s-2.16 2.619-11.498 3.042a16.52 16.52 0 0 0-6.637 1.772 16.2 16.2 0 0 0-5.363 4.313c1.89-3.543-2.122-7.856-2.122-7.856-.656 2.85-4.746 7.432-12.232 7.163-8.913-.27-16.977 3.158-22.495 12.516-3.897 6.624-2.396 14.48-1.428 17.87a99.159 99.159 0 0 0-7.485 16.02 27.866 27.866 0 0 0-10.38-1.387c-6.636.424-12.192 3.39-15.28 8.088-2.777 4.236-3.318 9.435-1.465 14.557 2.662 7.355 9.993 13.132 18.328 15.135-.04.346-.116.693-.155 1.04-.964 6.816 2.161 10.128 10.264 12.862l1.505.462c0 .693-.039 1.387 0 2.08.347 9.165 4.283 16.675 11.344 21.72 3.318 2.388 7.447 3.774 11.845 5.276 5.132 1.772 6.56 4.12 5.287 9.243 0 0 6.945 2.503 9.144-4.314 0 0 3.627 9.782 12.656 7.626 0 0-1.119-5.315-.038-7.972 1.273-2.157 2.855.732 2.894.77a4.994 4.994 0 0 0 5.401 2.041c-1.35-2.31-2.083-4.39-.308-6.74 1.119-1.347 6.482-6.47 7.833-7.933 5.594-5.892 9.337-12.785 9.183-21.72l1.543-.462c5.865-1.887 11.306-6.085 10.264-12.94a427.4 427.4 0 0 0-1.042-6.431c9.415-2.272 17.556-9.705 19.486-18.37 1.196-5.353.038-10.436-3.28-14.287ZM59.525 74.172c-1.235-3.389-.926-6.7.849-9.435 2.084-3.196 6.02-5.199 10.804-5.507.424-.039.887-.039 1.312-.039 2.309.005 4.602.382 6.79 1.117a182.543 182.543 0 0 0-6.019 25.186c-6.212-1.579-11.807-5.969-13.736-11.322Zm84.888 9.474c5.401 5.16 8.797 12.092 8.797 19.833a28.712 28.712 0 0 1-1.196 8.55c-1.737 5.006-6.367 9.781-11.962 9.935-7.1.154-11.344-6.238-12.733-12.67a34.79 34.79 0 0 1-7.215.77c.347 10.321-5.44 16.214-12.502 16.214-5.132 0-9.646-4.044-10.534-4.968-6.328-6.624-6.906-16.406-6.906-17.792a28.645 28.645 0 0 1 6.482-18.37c-8.334-2.927-11.576-10.206-11.113-19.14.618-11.939 2.431-22.876 17.132-22.028 2.402.151 4.755.738 6.946 1.733a23.19 23.19 0 0 0 21.607-1.271 19.632 19.632 0 0 1 6.714-2.504c14.508-2.58 17.556 8.088 19.601 19.872 1.66 10.206-1.813 18.794-13.118 21.836Zm39.51-17.484c-1.427 6.393-7.716 12.092-14.893 13.94a175.766 175.766 0 0 0-6.868-24.954 21.134 21.134 0 0 1 8.218-2.272c.425-.039.81-.039 1.235-.039 4.244 0 7.949 1.464 10.187 4.12 2.16 2.465 2.893 5.7 2.122 9.205Z" fill="#0a0b0d" fill-rule="evenodd" data-name="Path 18"/><path d="M157.952 49.949c-4.9-.193-69.646 2.08-74.508 2.619a1.692 1.692 0 0 0-.733.27 1.816 1.816 0 0 0-.579.5c-.157.203-.263.44-.309.693-.07.25-.083.514-.038.77l.154 1.31c.077.693 2.74 8.356 5.904 14.788 2.74 5.507 9.53 9.782 20.218 6.239 5.943-1.964 8.373-8.319 9.377-13.787a3.918 3.918 0 0 1 1.234-2.234 3.785 3.785 0 0 1 2.354-.963 3.88 3.88 0 0 1 3.82 2.927c1.389 5.353 4.283 11.553 10.34 13.094 10.92 2.773 17.403-1.926 19.718-7.664 2.47-6.046 4.823-14.442 4.862-15.135l.038-1.31c.032-.258.006-.521-.077-.77a1.636 1.636 0 0 0-.386-.654 1.856 1.856 0 0 0-.617-.462 2.566 2.566 0 0 0-.772-.231Z" fill="#0a0b0d" fill-rule="evenodd" data-name="Path 19"/><path d="M117.326 86.496c.347 1.078-.888 2.002-2.74 2.118-1.852.115-3.974-.5-4.823-1.54-.965-1.194.116-2.465 2.47-2.62 2.353-.153 4.707.81 5.093 2.042Z" fill="#0a0b0d" fill-rule="evenodd" data-name="Path 20"/><path d="M133.763 85.263c-.656 1.156-2.662 2.118-4.514 2.273-1.853.154-3.242-.578-3.049-1.695.232-1.27 2.354-2.619 4.746-2.811 2.393-.193 3.55.885 2.817 2.233Z" fill="#0a0b0d" fill-rule="evenodd" data-name="Path 21"/><g data-name="Mask Group 2" transform="translate(81.759 49.937)" clip-path="url(&quot;#a&quot;)"><g data-name="Group 314"><path d="m43.435 26.711-19.872-14.18-6.413 8.6-4.958-2.985-5.012 6.825-3.11-2.276 7.096-9.663 4.981 2.996 6.583-8.826 20.4 14.557 9.168-8.403L59 16.006l7.003-6.99 2.728 2.722-8.797 8.78-6.807-2.695-9.692 8.888Z" fill="#ffc61a" fill-rule="evenodd" data-name="Path 22"/><path d="M71.189 6.578v9.242H67.33V10.43h-5.402V6.578h9.26Z" fill="#ffc61a" fill-rule="evenodd" data-name="Path 23"/></g></g></g><defs><clipPath id="a"><path d="M150.726 129.682c-4.9-.193-69.647 2.08-74.508 2.618a1.692 1.692 0 0 0-.734.27 1.816 1.816 0 0 0-.578.5c-.157.204-.263.441-.31.694-.07.25-.083.514-.038.77l.155 1.31c.077.693 2.74 8.356 5.903 14.788 2.74 5.507 9.53 9.781 20.219 6.238 5.942-1.964 8.373-8.318 9.376-13.787a3.918 3.918 0 0 1 1.235-2.233 3.785 3.785 0 0 1 2.354-.963 3.88 3.88 0 0 1 3.82 2.927c1.389 5.353 4.282 11.553 10.34 13.094 10.92 2.772 17.402-1.926 19.717-7.664 2.47-6.046 4.823-14.442 4.862-15.135l.039-1.31c.031-.259.005-.522-.078-.77a1.636 1.636 0 0 0-.385-.654 1.856 1.856 0 0 0-.618-.462 2.566 2.566 0 0 0-.771-.231Z" data-name="Path 24" transform="translate(-74.532 -129.67)"/></clipPath></defs></svg>