<svg xmlns="http://www.w3.org/2000/svg" width="144.628" height="156" viewBox="215.687 598 144.628 156"><g data-name="Stock monkey happy face"><path d="M288 735.286c-35.878-6.733-18.64 7.81-33.723-12.12-5.387-19.93-15.352-30.704-15.352-30.704s-26.125-8.887-18.584-26.125c7.542-17.237 26.933-5.925 26.933-5.925s.808-28.818 36.629-19.122c26.394-4.31 37.437 0 37.437 0l5.656 12.389s26.124-11.581 29.626 10.234c3.501 21.816-24.51 22.624-24.51 22.624l-6.463 20.2s-1.77 35.282-37.648 28.549Z" fill="#fff" fill-rule="evenodd" data-name="Path 931"/><path d="M353.907 667.95c-1.49 6.762-8.146 12.786-15.734 14.728a187.282 187.282 0 0 0-7.23-26.385 22.663 22.663 0 0 1 8.698-2.395c.44-.029.876-.045 1.298-.045 4.501 0 8.379 1.548 10.775 4.338 2.22 2.607 2.994 6.057 2.175 9.76h.018Zm-32.426 39.467c-.16 5.386-1.25 9.038-1.259 9.034-1.828 5.296-6.708 10.353-12.627 10.496-7.49.18-11.986-6.586-13.44-13.38a35.653 35.653 0 0 1-7.613.815c.362 10.92-5.731 17.148-13.198 17.148-5.396 0-10.181-4.284-11.115-5.27-6.687-6.99-7.295-17.36-7.295-18.825-.058-7.077 2.36-18.884 6.835-24.366-8.81-3.104-12.218-5.849-11.742-15.32.65-12.627 2.558-24.206 18.084-23.282 2.535.154 5.02.772 7.331 1.826a24.537 24.537 0 0 0 22.81-1.332 20.712 20.712 0 0 1 7.072-2.664c15.319-2.727 18.552 8.552 20.67 21.02 1.808 10.826-1.854 16.773-13.812 20.003 0-.006 9.663 11.757 9.3 24.09v.007Zm-98.882-31c-1.287-3.568-.965-7.104.909-9.963 2.207-3.365 6.37-5.482 11.404-5.808.464-.029.929-.046 1.394-.046a22.82 22.82 0 0 1 7.176 1.178 195.996 195.996 0 0 0-6.361 26.655c-6.608-1.73-12.485-6.338-14.522-12.02v.004Zm133.74-22.2c-3.882-4.526-10.114-6.864-17.107-6.41a28.491 28.491 0 0 0-10.516 2.781c-2.778-6.688-6.11-13.034-10.134-18.443l.167.16s5.531-2.348 5.005-7.695c-.505-5.185-7.885-5.618-7.885-5.618 5.93-.814 5.827-7.693 5.827-7.693-6.446 1.466-9.305-1.25-9.305-1.25 9.877-3.178 6.203-12.049 6.203-12.049s-2.289 2.77-12.133 3.222a17.48 17.48 0 0 0-12.688 6.415c2.013-3.747-2.237-8.297-2.237-8.297-.676 3.026-5.025 7.841-12.895 7.588-9.408-.297-17.915 3.34-23.742 13.221-4.122 7.01-2.525 15.328-1.519 18.916a103.416 103.416 0 0 0-7.901 16.949 28.56 28.56 0 0 0-10.952-1.46c-6.99.448-12.872 3.57-16.142 8.554-2.95 4.48-3.505 9.967-1.548 15.38 2.806 7.78 10.561 13.91 19.33 16.004-.052.37-.105.737-.153 1.095-1.01 7.226 2.28 10.696 10.846 13.597l1.591.476c0 .732-.023 1.474 0 2.216.364 9.698 4.505 17.64 11.984 22.963 3.52 2.51 7.853 3.975 12.495 5.583 5.439 1.873 6.925 4.37 5.583 9.774 0 0 7.33 2.64 9.665-4.578 0 0 3.84 10.346 13.351 8.05 0 0-1.168-5.63-.025-8.427 1.325-2.27 3 .758 3.04.814a5.212 5.212 0 0 0 5.701 2.134c-1.408-2.443-2.191-4.631-.32-7.124 1.18-1.404 6.83-6.854 8.28-8.386 5.914-6.232 9.873-13.526 9.714-22.979l1.63-.49c6.18-1.998 11.913-6.423 10.833-13.672-.313-2.115-.68-4.4-1.103-6.814 9.943-2.403 18.545-10.273 20.565-19.422 1.24-5.654.018-11.005-3.505-15.09v.005Z" fill="#0a0b0d" fill-rule="evenodd" data-name="Path 928"/><path d="M282.54 685.34c.383 1.148-.942 2.102-2.91 2.253-1.968.15-4.202-.534-5.08-1.63-1.007-1.27.099-2.596 2.608-2.785 2.51-.19 4.947.853 5.382 2.162Z" fill="#0a0b0d" fill-rule="evenodd" data-name="Path 929"/><path d="M299.866 684.032c-.7 1.222-2.807 2.24-4.774 2.39-1.967.15-3.42-.595-3.218-1.788.232-1.36 2.48-2.774 4.99-2.965 2.51-.19 3.808.953 3.002 2.363Z" fill="#0a0b0d" fill-rule="evenodd" data-name="Path 930"/><path d="M268.068 676.967a6.558 6.558 0 0 1 3.116.87 13.75 13.75 0 0 0 .705-4.505c0-4.174-1.603-7.557-3.58-7.557s-3.578 3.383-3.578 7.557c-.01 1.35.17 2.694.538 3.993a9.85 9.85 0 0 1 2.8-.358Z" fill="#0a0b0d" fill-rule="evenodd" data-name="Path 931"/><path d="M307.449 675.604c.11-.75.165-1.507.163-2.266 0-4.173-1.602-7.557-3.578-7.557-1.975 0-3.58 3.384-3.58 7.557 0 1.873.322 3.585.855 4.904 1.926-1.176 3.942-2.208 6.14-2.638Z" fill="#0a0b0d" fill-rule="evenodd" data-name="Path 932"/><path d="M278.49 658.676c-.69 0-1.373-.303-1.834-.886-2.081-2.628-4.3-4.002-6.593-4.083-3.722-.131-6.785 3.102-6.815 3.135a2.337 2.337 0 1 1-3.45-3.152c.18-.199 4.512-4.86 10.43-4.653 3.726.131 7.121 2.1 10.092 5.852a2.337 2.337 0 0 1-1.83 3.787Z" fill="#0a0b0d" fill-rule="evenodd" data-name="Path 928"/><path d="M313.515 657.678a2.333 2.333 0 0 1-1.907-.983c-.05-.07-2.681-3.655-6.4-3.979-2.277-.198-4.642.886-7.029 3.221a2.337 2.337 0 1 1-3.268-3.34c3.42-3.347 7.037-4.87 10.75-4.533 5.899.54 9.607 5.71 9.762 5.93a2.337 2.337 0 0 1-1.908 3.684Z" fill="#0a0b0d" fill-rule="evenodd" data-name="Path 929"/><path d="M264.498 693.824c-.036.57-.055 1.144-.057 1.723 0 13.698 10.165 24.796 22.7 24.796 12.537 0 22.7-11.103 22.7-24.796a27.071 27.071 0 0 0-.607-5.719c-17.87 6.458-36.057 5.188-44.736 3.996Z" fill="#0a0b0d" fill-rule="evenodd" data-name="Path 936"/><path d="m268.309 693.896 5.869 10.016-1.384 5.688s5.57 4.78 15.414 4.78 15.819-9.156 15.819-9.156l-3.579-4.271.986-7.057s-17.523 5.005-33.125 0Z" fill="#fff" fill-rule="evenodd" data-name="Path 937"/><path d="M281.116 696.927c-.933 0-1.828-.013-2.68-.035-9.15-.24-15.358-1.579-15.617-1.636a1.688 1.688 0 0 1 .72-3.297c.062.013 6.217 1.335 15.066 1.56 8.122.21 20.248-.491 31.895-5.002a1.688 1.688 0 0 1 1.22 3.148c-10.967 4.246-22.288 5.262-30.604 5.262Z" fill="#0a0b0d" fill-rule="evenodd" data-name="Path 930"/></g></svg>