<svg xmlns="http://www.w3.org/2000/svg" width="144.62" height="156" viewBox="108 250 144.62 156"><g data-name="Stock monkey angry 2"><path d="M180.284 388.22c-36.12-6.463-18.564 4.824-33.748-14.31-5.423-19.134-15.455-29.477-15.455-29.477s-26.301-8.533-18.709-25.081c7.592-16.548 27.114-5.689 27.114-5.689s.814-27.666 36.876-18.358c26.537-6.489 37.689 0 37.689 0l5.694 11.894s26.3-11.118 29.825 9.826c3.525 20.944-24.674 21.72-24.674 21.72l-6.507 19.392s-1.985 36.548-38.105 30.084Z" fill="#fff" fill-rule="evenodd" data-name="Path 1198"/><path d="M159.489 327.16c1.416-.13 2.841.3 4.128.855.774.34 1.525.73 2.248 1.168.338-1.253.505-2.545.498-3.842 0-4.174-1.602-7.559-3.58-7.559-1.977 0-3.579 3.385-3.579 7.559 0 .616.036 1.233.108 1.846.058-.013.117-.022.177-.026Z" fill-rule="evenodd" data-name="Path 1186"/><path d="M196.013 328.417a10.596 10.596 0 0 1 6.025-1.947c.026-.369.039-.747.039-1.13 0-4.175-1.602-7.56-3.58-7.56-1.977 0-3.579 3.385-3.579 7.56a14.574 14.574 0 0 0 .434 3.608c.217-.188.436-.365.66-.53Z" fill-rule="evenodd" data-name="Path 1187"/><path d="M246.217 319.953c-1.49 6.76-8.146 12.785-15.734 14.728a187.42 187.42 0 0 0-7.23-26.386 22.666 22.666 0 0 1 8.698-2.394c.44-.029.876-.045 1.298-.045 4.501 0 8.379 1.547 10.775 4.338 2.22 2.606 2.994 6.056 2.175 9.759h.018Zm-41.7 18.479c5.702 5.452 9.275 12.773 9.275 20.984 0 5.389-1.25 9.038-1.26 9.034-1.828 5.296-6.708 10.355-12.626 10.496-7.49.18-11.987-7.754-13.44-14.548a35.558 35.558 0 0 1-7.613.814c.362 10.921-5.73 18.317-13.197 18.317-5.396 0-10.183-4.284-11.115-5.27-6.688-6.99-7.296-17.36-7.296-18.825A30.34 30.34 0 0 1 154.08 340c-8.81-3.103-12.219-10.775-11.742-20.252.649-12.627 2.557-24.207 18.084-23.282 2.535.153 5.02.772 7.33 1.825a24.526 24.526 0 0 0 22.81-1.332 20.724 20.724 0 0 1 7.072-2.664c15.319-2.726 18.553 8.554 20.67 21.02 1.808 10.828-1.852 19.89-13.812 23.12l.025-.003Zm-89.608-10.016c-1.286-3.568-.964-7.103.909-9.963 2.207-3.363 6.37-5.482 11.405-5.808.463-.028.928-.044 1.393-.044 2.44.006 4.862.403 7.176 1.176a196.232 196.232 0 0 0-6.361 26.655c-6.608-1.726-12.48-6.342-14.522-12.016Zm133.74-22.2c-3.882-4.524-10.114-6.862-17.107-6.41a28.507 28.507 0 0 0-10.516 2.782c-2.778-6.688-6.109-13.034-10.133-18.442l.167.158s5.53-2.346 5.006-7.695c-.505-5.185-7.887-5.616-7.887-5.616 5.932-.815 5.825-7.694 5.825-7.694-6.443 1.467-9.303-1.25-9.303-1.25 9.877-3.177 6.203-12.049 6.203-12.049s-2.289 2.77-12.133 3.222a17.471 17.471 0 0 0-12.687 6.416c2.012-3.748-2.237-8.297-2.237-8.297-.675 3.026-5.025 7.84-12.895 7.588-9.408-.297-17.916 3.34-23.742 13.221-4.122 7.01-2.525 15.327-1.519 18.915a103.48 103.48 0 0 0-7.902 16.948 28.56 28.56 0 0 0-10.952-1.458c-6.99.448-12.872 3.568-16.142 8.553-2.948 4.48-3.499 9.968-1.547 15.38 2.806 7.78 10.56 13.91 19.33 16.003l-.155 1.096c-1.01 7.225 2.281 10.696 10.847 13.596l1.593.476c0 .734-.025 1.475 0 2.216.362 9.698 4.505 17.64 11.982 22.964 3.52 2.508 7.853 3.975 12.497 5.583 5.437 1.873 6.923 4.37 5.582 9.775 0 0 7.331 2.64 9.666-4.579 0 0 3.84 10.346 13.35 8.05 0 0-1.168-5.63-.023-8.429 1.323-2.268 2.997.758 3.038.816a5.215 5.215 0 0 0 5.703 2.134c-1.41-2.445-2.192-4.63-.322-7.125 1.181-1.404 6.83-6.854 8.28-8.386 5.914-6.232 9.866-13.526 9.714-22.979l1.617-.512c6.178-2 11.913-6.423 10.833-13.673-.313-2.114-.68-4.398-1.103-6.814 9.943-2.403 18.545-10.273 20.565-19.42 1.251-5.628.03-10.983-3.494-15.066v.002Z" fill="#0a0b0d" fill-rule="evenodd" data-name="Path 1188"/><path d="M175.701 337.575c.376 1.151-.955 2.095-2.923 2.233-1.968.137-4.2-.561-5.072-1.662-.999-1.277.12-2.596 2.629-2.769 2.51-.173 4.94.884 5.366 2.198Z" fill-rule="evenodd" data-name="Path 1189"/><path d="M193.037 336.378c-.708 1.216-2.82 2.221-4.789 2.359-1.968.137-3.418-.617-3.206-1.81.241-1.358 2.499-2.756 5.008-2.931 2.51-.176 3.803.977 2.987 2.382Z" fill-rule="evenodd" data-name="Path 1190"/><path d="M205.11 364.635s-3.392-14.93-8-18.201c-4.527-3.212-10.917-.771-17.691.47-7.34.241-13.43-2.377-17.656 1.264-4.304 3.708-6.377 18.906-6.377 18.906s-1.219 5.146 4.22 5.673c5.28.52 12.625-7.73 20.553-8.946 8.899.15 16.033 7.92 21.246 6.895 5.368-1.058 3.705-6.061 3.705-6.061Z" fill="#0a0b0d" fill-rule="evenodd" data-name="Path 1192"/><path d="m165.065 371.73 2.298-9.217s3.27-3.709 13.155-3.977c9.954-.27 13.904 3.845 13.904 3.845l1.8 7.822s-8.155-7.074-15.91-6.718c-7.756.355-15.247 8.246-15.247 8.246Z" fill="#fff" fill-rule="evenodd" data-name="Path 1193"/><path d="M169.148 317.69c-.21 0-.423-.028-.635-.087-9.71-2.737-14.2-5.687-14.386-5.811a2.337 2.337 0 0 1 2.586-3.893c.068.045 4.191 2.704 13.067 5.205a2.337 2.337 0 0 1-.632 4.587Z" fill-rule="evenodd" data-name="Path 1204"/><path d="M191.476 317.69a2.337 2.337 0 0 1-.633-4.586c8.907-2.51 13.027-5.178 13.067-5.205a2.334 2.334 0 0 1 3.238.65 2.34 2.34 0 0 1-.651 3.243c-.186.124-4.675 3.074-14.386 5.81-.212.06-.425.089-.635.089Z" fill-rule="evenodd" data-name="Path 1205"/><path d="m170.998 353.275 16.848-.94c.314-.019.624.077.872.27l2.215 1.706a1.309 1.309 0 0 0 2.037-.61l2.776-8.049c-4.403-1.972-10.21.13-16.328 1.248-6.62.218-12.225-1.89-16.357.367l3.516 7.355a1.312 1.312 0 0 0 2.063.403l1.558-1.415c.221-.199.503-.317.8-.335Z" fill="#fff" fill-rule="evenodd" data-name="Path 1196"/><path d="M160.085 374.36a6.51 6.51 0 0 1-.636-.031c-2.109-.205-3.687-1.018-4.688-2.418-1.473-2.06-1.058-4.56-.94-5.117.075-.542.595-4.122 1.597-8.165 1.503-6.067 3.24-9.883 5.307-11.665 3.35-2.886 7.563-2.46 12.022-2.008 2.081.21 4.231.428 6.502.363 1.266-.235 2.539-.515 3.77-.787 5.554-1.224 10.8-2.381 15.01.606 2.218 1.575 4.283 5.208 6.311 11.106a86.846 86.846 0 0 1 2.305 7.974c.165.543.793 2.983-.48 5.17-.87 1.491-2.368 2.456-4.453 2.867-3.035.597-6.172-1.028-9.804-2.909-3.478-1.801-7.416-3.84-11.642-3.953-3.572.587-7.078 2.749-10.471 4.84-3.436 2.118-6.694 4.126-9.71 4.126Zm7.925-26.554c-2.065 0-3.805.355-5.21 1.566-.86.74-2.56 3.024-4.29 9.995a85.236 85.236 0 0 0-1.55 7.922c-.007.05-.016.102-.028.151-.095.43-.21 1.764.423 2.635.445.612 1.253.98 2.403 1.09 2.128.21 5.16-1.659 8.37-3.637 3.531-2.178 7.534-4.645 11.79-5.297.088-.014.177-.02.267-.019 5.023.086 9.359 2.331 13.185 4.312 3.103 1.607 5.783 2.996 7.729 2.613 1.149-.227 1.93-.68 2.32-1.35.648-1.113.188-2.636.183-2.651a1.614 1.614 0 0 1-.042-.149c-1.261-5.544-4.378-15.133-7.37-17.257-3.062-2.173-7.43-1.21-12.486-.094-1.297.286-2.638.581-4 .83a1.609 1.609 0 0 1-.234.026c-2.526.083-4.926-.16-7.043-.374-1.606-.163-3.08-.312-4.417-.312Z" fill="#0a0b0d" fill-rule="evenodd" data-name="Path 1206"/></g></svg>