<svg xmlns="http://www.w3.org/2000/svg" width="178.507" height="188" viewBox="91.061 225 178.507 188"><g data-name="Stock monkey thumbs up"><path d="M150.768 402.665c2.154-8.08-18.853-47.671-18.853-47.671s-9.696 4.848-15.083 7.003c-1.077-4.04-10.234-23.701-19.122-17.507-8.888 6.195-1.886 11.581-1.886 11.581l9.427 15.622 18.853 38.783 26.664-7.81Z" fill="#fff" fill-rule="evenodd" data-name="Path 938"/><path d="M210.394 403.632c1.283-8.84 17.776-48.423 17.776-48.423s10.96 4.633 16.347 6.788c1.078-4.04 10.235-23.701 19.123-17.507 8.888 6.195 1.885 11.581 1.885 11.581l-9.426 15.622-18.854 38.783-26.851-6.844Z" fill="#fff" fill-rule="evenodd" data-name="Path 939"/><path d="M175.125 368.73s-30.552 4.31-34.323-37.437c-6.463-5.656-10.503-9.157-10.503-9.157s-25.587-4.04-20.739-25.586c6.733-16.699 29.088-8.08 29.088-8.08s2.962-28.819 39.053-16.968c17.506-7.81 36.09-8.619 42.284 11.042 5.926-.808 24.779-11.042 30.973 8.35 6.195 19.391-26.125 26.394-26.125 26.394l-4.848 18.853s-.538 28.818-28.549 32.589c-13.197.808-16.311 0-16.311 0Z" fill="#fff" fill-rule="evenodd" data-name="Path 937"/><path d="M208.785 319.846a5.438 5.438 0 0 0-1.029-3.087 5.278 5.278 0 0 0-2.667-1.965 4.548 4.548 0 0 0-1.613-.216 4.05 4.05 0 0 0-.802.123 2.687 2.687 0 0 0-.778.323l.535.586c.167.185.329.35.478.522.146.158.283.313.415.463l-.006.003c-16.852 9.394-35.449 6.4-44.701 4.816l.095-.108c.293-.324.605-.665.947-1.023.169-.182.348-.361.535-.558l.6-.612a2.96 2.96 0 0 0-.849-.281 4.602 4.602 0 0 0-.877-.082 5.334 5.334 0 0 0-1.725.299 6.209 6.209 0 0 0-2.862 2.066 6.401 6.401 0 0 0-1.326 3.224c-.02.143-.033.286-.037.43v.429c.001.143.01.286.03.428.015.141.034.29.058.424.055.282.129.56.22.833.101.28.228.548.38.802.198-.214.381-.44.552-.675.083-.1.156-.202.23-.301.334 1.435.831 3.241 1.534 5.207 1.438 4.027 4.12 9.716 8.723 13.953 4.379 4.03 9.653 6.067 15.698 6.067.555 0 1.117-.018 1.684-.052 4.188-.254 7.966-1.395 11.23-3.393 2.833-1.733 5.294-4.12 7.315-7.094 3.355-4.936 4.882-10.582 5.572-14.45.325-1.822.537-3.691.62-5.282.05.076.097.153.151.23.071.101.137.204.217.307.149.226.311.443.487.649.174-.218.325-.452.452-.7.116-.24.216-.487.297-.74a5.037 5.037 0 0 0 .217-1.565Z" fill="#0a0b0d" fill-rule="evenodd" data-name="Path 932"/><path d="M248.578 297.062c-1.536 6.965-8.391 13.172-16.208 15.173a193.485 193.485 0 0 0-7.448-27.182 23.311 23.311 0 0 1 8.954-2.467c.453-.03.901-.046 1.337-.046 4.637 0 8.632 1.594 11.094 4.469 2.287 2.685 3.084 6.238 2.241 10.053h.03Zm-33.405 40.657c-.297 5.543-1.288 9.31-1.296 9.307-1.884 5.454-6.91 10.665-13.007 10.813-7.717.184-12.35-6.785-13.848-13.785a36.65 36.65 0 0 1-7.842.84c.374 11.249-5.903 17.664-13.595 17.664-5.56 0-10.49-4.413-11.45-5.428-6.891-7.2-7.478-17.885-7.516-19.392-.246-10.048 2.58-20.914 7.192-26.561-9.077-3.197-12.74-4.565-12.248-14.325.668-13.008 2.636-24.937 18.631-23.984a21.32 21.32 0 0 1 7.552 1.88 25.267 25.267 0 0 0 23.499-1.373 21.358 21.358 0 0 1 7.283-2.744c15.781-2.809 19.113 8.812 21.295 21.656 1.863 11.153-2.39 14.865-14.71 18.189 0 0 10.919 11.269 10.06 27.241v.002Zm-101.866-31.936c-1.326-3.677-.995-7.318.936-10.263 2.274-3.467 6.563-5.648 11.75-5.984.478-.03.957-.047 1.435-.047a23.51 23.51 0 0 1 7.393 1.213 201.872 201.872 0 0 0-6.554 27.458c-6.807-1.78-12.861-6.534-14.96-12.378v.001Zm137.777-22.87c-3.999-4.662-10.42-7.07-17.624-6.605a29.385 29.385 0 0 0-10.833 2.866c-2.861-6.89-6.294-13.428-10.439-19l.171.164s5.7-2.417 5.157-7.925c-.52-5.342-8.123-5.787-8.123-5.787 6.11-.839 6-7.927 6-7.927-6.638 1.511-9.583-1.288-9.583-1.288C215.985 234.138 212.2 225 212.2 225s-2.358 2.853-12.5 3.318a18.018 18.018 0 0 0-13.07 6.61c2.072-3.862-2.304-8.548-2.304-8.548-.697 3.117-5.178 8.077-13.284 7.817-9.694-.306-18.463 3.441-24.459 13.62-4.246 7.222-2.602 15.79-1.566 19.486a106.469 106.469 0 0 0-8.14 17.46 29.462 29.462 0 0 0-11.283-1.502c-7.2.462-13.259 3.675-16.628 8.812-3.038 4.616-3.604 10.268-1.595 15.845 2.891 8.013 10.88 14.329 19.915 16.486-.055.381-.11.758-.16 1.129-1.041 7.442 2.35 11.017 11.173 14.005l1.641.49c0 .756-.025 1.52 0 2.284.374 9.99 4.641 18.172 12.345 23.657 3.625 2.585 8.09 4.095 12.874 5.744 5.602 1.93 7.133 4.503 5.744 10.07 0 0 7.553 2.72 9.957-4.715 0 0 3.957 10.658 13.755 8.292 0 0-1.204-5.799-.026-8.681 1.365-2.338 3.088.78 3.131.838a5.369 5.369 0 0 0 5.874 2.199c-1.452-2.517-2.257-4.77-.332-7.338 1.217-1.449 7.038-7.063 8.532-8.64 6.092-6.42 10.17-13.936 10.006-23.678l1.679-.503c6.366-2.061 12.273-6.618 11.162-14.087a275.49 275.49 0 0 0-1.137-7.02c10.242-2.476 19.103-10.582 21.186-20.007 1.282-5.812.022-11.326-3.606-15.533v.003Z" fill="#0a0b0d" fill-rule="evenodd" data-name="Path 844"/><path d="M175.057 314.979c.394 1.184-.97 2.165-2.996 2.32-2.026.156-4.33-.55-5.237-1.678-1.037-1.308.105-2.675 2.69-2.87 2.583-.195 5.093.877 5.543 2.228Z" fill="#0a0b0d" fill-rule="evenodd" data-name="Path 845"/><path d="M192.907 313.628c-.722 1.259-2.892 2.308-4.918 2.464-2.026.155-3.525-.613-3.315-1.842.24-1.402 2.556-2.858 5.14-3.056 2.583-.198 3.923.983 3.093 2.434Z" fill="#0a0b0d" fill-rule="evenodd" data-name="Path 846"/><path d="M160.149 306.351a6.719 6.719 0 0 1 3.21.896c.497-1.496.743-3.064.727-4.64 0-4.3-1.652-7.785-3.689-7.785s-3.687 3.485-3.687 7.785c-.01 1.39.177 2.775.556 4.112.939-.26 1.91-.383 2.883-.368Z" fill="#0a0b0d" fill-rule="evenodd" data-name="Path 847"/><path d="M200.713 304.94c.113-.773.169-1.553.169-2.333 0-4.3-1.652-7.785-3.689-7.785s-3.687 3.485-3.687 7.785c0 1.928.333 3.69.883 5.051 1.995-1.205 4.064-2.268 6.324-2.719Z" fill="#0a0b0d" fill-rule="evenodd" data-name="Path 848"/><path d="M151.705 292.634a2.412 2.412 0 0 1-2.045-3.68c.146-.236 3.641-5.78 9.675-6.696 3.798-.576 7.612.771 11.337 4.006a2.408 2.408 0 0 1-3.157 3.635c-2.6-2.258-5.099-3.228-7.43-2.885-3.822.563-6.312 4.444-6.337 4.483a2.398 2.398 0 0 1-2.043 1.137Z" fill="#0a0b0d" fill-rule="evenodd" data-name="Path 933"/><path d="M206.896 289.781a2.405 2.405 0 0 1-2.002-1.067c-.05-.072-2.657-3.84-6.478-4.277-2.34-.268-4.804.781-7.327 3.12a2.407 2.407 0 0 1-3.273-3.533c3.616-3.35 7.384-4.82 11.197-4.365 6.06.721 9.732 6.151 9.885 6.382a2.407 2.407 0 0 1-2.002 3.74Z" fill="#0a0b0d" fill-rule="evenodd" data-name="Path 934"/><path d="m161.125 325.177 7.84 12.126-1.824 6.09s6.929 6.789 17.029 5.87c10.1-.919 14.734-11.191 14.734-11.191l-3.879-4.629 2.793-10.592s-20.157 6.73-36.693 2.326Z" fill="#fff" fill-rule="evenodd" data-name="Path 853"/><path d="m153.393 399.34-1.965-5.725c-.403-1.18-1.232-2.15-2.352-2.769.042-.08.084-.162.122-.245.61-1.312.666-2.74.16-4.018l-2.265-5.735c-.473-1.199-1.396-2.154-2.615-2.713.472-1.29.44-2.649-.097-3.85l-2.566-5.741a4.984 4.984 0 0 0-1.999-2.24c.448-1.347.366-2.748-.239-3.963l-2.863-5.74c-.625-1.259-1.75-2.192-3.166-2.626-1.75-.536-3.767-.273-5.53.724l-9.738 5.502a89.443 89.443 0 0 0-3.444-7.421c-3.155-6.016-6.045-9.577-8.837-10.885-2.086-.977-4.68-.978-7.306-.002-2.33.866-4.467 2.432-5.865 4.296-2.374 3.17-2.356 6.688.05 9.414 5.684 6.445 10.02 17.093 10.063 17.2.093.23.223.433.38.608-.414 1.423-.642 3.049-.67 4.849a26.835 26.835 0 0 0 .14 3.105c-1.51 2.162-5.239 3.501-5.239 3.501 1.554 1.968 5.446 3.118 5.446 3.118-.785 1.42-.737 4.717-.737 4.717 1.149-.483 2.38-.517 3.455-.38.367.869.766 1.736 1.195 2.597 2.354 4.721 5.41 8.806 8.835 11.814 2.262 1.986 4.54 3.376 6.729 4.12a4.96 4.96 0 0 0 3.906 1.917c.432 0 .87-.057 1.303-.177l.016-.004 21.28-6.046c1.795-.51 3.279-1.674 4.073-3.194.668-1.279.789-2.703.34-4.009Zm-7.955-10.485c-.265.57-.906 1.084-1.673 1.342l-22.113 7.437c-.444.15-.951-.057-1.107-.451l-1.726-4.37c-.157-.396.073-.896.498-1.091l21.226-9.684c.039-.018.077-.034.116-.05l.065-.026c.387-.151.79-.23 1.163-.23.289 0 .56.047.794.141.284.115.472.283.557.498l2.265 5.737c.086.217.064.469-.065.747Zm-4.876-12.086c-.231.561-.802 1.086-1.51 1.399l-.036.015c-.04.017-.08.034-.122.05l-22.195 8.569c-.466.18-1.014-.015-1.198-.431l-1.955-4.376c-.27-.605-.095-1.673.161-1.915l22.155-9.648c.484-.21.937-.466 1.356-.757.3.067.66.22.813.56l2.565 5.74c.101.228.09.495-.034.794Zm-10.504-18.46c.529-.3 1.115-.459 1.642-.459.225 0 .439.03.633.09.326.1.551.27.67.508l2.863 5.741c.12.24.12.526.002.85-.235.646-.856 1.241-1.66 1.592l-22.275 9.7c-.488.212-1.082.025-1.299-.409l-2.184-4.379c-.216-.434-.007-1.022.456-1.283l21.152-11.951Zm-34.071-5.449c-1.068-1.21-1.015-2.618.159-4.184 1.944-2.595 5.878-4.065 8.093-3.027 3.499 1.64 8.19 10.957 10.401 16.609l-7.774 4.392a5.238 5.238 0 0 0-1.533 1.31c-1.817-3.884-5.194-10.391-9.346-15.1Zm53.392 48.568c-.266.508-.838.928-1.53 1.125h-.001l-21.27 6.044a.785.785 0 0 1-.942-.496l-1.497-4.361a.786.786 0 0 1 .438-.975l20.5-8.287c.669-.27 1.38-.29 1.9-.051.273.125.45.302.528.53l1.967 5.73c.077.225.046.475-.093.741Z" fill="#0a0b0d" fill-rule="evenodd" data-name="Path 935"/><path d="M267.93 354.537c2.295-2.82 2.172-6.337-.328-9.408-1.47-1.808-3.669-3.287-6.03-4.059-2.663-.87-5.255-.766-7.3.294-2.735 1.42-5.481 5.093-8.394 11.23a89.503 89.503 0 0 0-3.146 7.552l-9.95-5.108c-1.802-.927-3.826-1.11-5.555-.503-1.398.49-2.484 1.467-3.056 2.746l-2.633 5.854c-.555 1.238-.581 2.64-.08 3.968a4.976 4.976 0 0 0-1.908 2.32l-2.335 5.837c-.488 1.222-.466 2.58.057 3.85-1.197.608-2.082 1.599-2.508 2.816l-2.035 5.823c-.453 1.3-.337 2.725.326 4.012.041.08.085.158.13.236-1.095.663-1.884 1.664-2.238 2.855l-1.735 5.8c-.397 1.325-.22 2.743.499 3.994.854 1.487 2.384 2.592 4.197 3.03l21.504 5.192.019.005c.37.086.742.127 1.109.127a4.964 4.964 0 0 0 4.023-2.075c2.158-.83 4.379-2.31 6.56-4.386 3.304-3.143 6.193-7.347 8.355-12.158.395-.877.759-1.76 1.091-2.642 1.069-.18 2.301-.195 3.469.242 0 0-.09-3.298-.927-4.685 0 0 3.845-1.304 5.319-3.331 0 0-3.78-1.19-5.374-3.29.065-1.066.072-2.105.016-3.108-.1-1.8-.393-3.416-.864-4.823.149-.18.27-.387.353-.62.038-.108 3.935-10.908 9.37-17.587Zm-11.748-9.492c2.17-1.126 6.158.186 8.205 2.7 1.235 1.52 1.346 2.924.327 4.175-3.962 4.87-7.076 11.506-8.736 15.46-.43-.5-.961-.927-1.584-1.247l-7.943-4.078c1.986-5.735 6.302-15.232 9.73-17.01Zm-30.862 19.79 2.633-5.857c.108-.24.325-.418.647-.531.222-.078.472-.116.737-.116.498 0 1.047.135 1.55.394l21.613 11.096c.474.244.706.822.506 1.266L251 375.549c-.199.442-.785.653-1.28.46l-22.643-8.803c-.82-.318-1.464-.887-1.725-1.523-.13-.32-.142-.606-.032-.849Zm-4.255 11.965 2.336-5.84c.138-.346.491-.513.788-.592.43.274.894.512 1.387.703l22.52 8.755c.267.234.484 1.295.24 1.909l-1.781 4.453c-.167.419-.708.636-1.18.475l-22.52-7.676-.087-.032a4.223 4.223 0 0 0-.087-.033c-.714-.286-1.3-.785-1.551-1.334-.135-.293-.157-.559-.065-.788Zm-4.422 12.314 2.034-5.82c.077-.218.257-.393.536-.518.574-.259 1.396-.229 2.145.077l21.592 8.828c.436.179.685.67.544 1.071l-1.55 4.436c-.14.4-.637.628-1.087.496l-22.395-6.55v.001c-.774-.227-1.434-.714-1.721-1.272-.142-.276-.174-.528-.098-.749Zm-1.761 14.531h-.001c-.7-.169-1.29-.567-1.575-1.064-.15-.261-.191-.51-.123-.739l1.737-5.805c.068-.228.238-.412.505-.547.511-.259 1.222-.268 1.902-.025l20.814 7.461a.789.789 0 0 1 .478.953l-1.32 4.416a.79.79 0 0 1-.925.54l-21.492-5.19Z" fill="#0a0b0d" fill-rule="evenodd" data-name="Path 936"/></g></svg>