<svg xmlns="http://www.w3.org/2000/svg" width="204.35" height="54.44" viewBox="355.481 197.953 204.35 54.44"><g data-name="Group 552"><path d="M371.39 226.672a438.64 438.64 0 0 0-11.549-9.81c.527 1.128.901 2.051 1.125 2.767l2.908 9.293c-1.318.413-1.976.623-3.291 1.05l-5.102-15.704c1.779-.578 2.67-.86 4.454-1.413a332.918 332.918 0 0 1 11.745 9.898 24.371 24.371 0 0 1-1.105-3.037l-2.606-9.237c1.395-.394 2.093-.587 3.492-.965l4.311 15.939c-1.756.475-2.632.719-4.382 1.219Z" fill-rule="evenodd" data-name="Path 1213"/><path d="M395.146 212.362c.334 1.686.247 3.244-.247 4.675-.494 1.431-1.363 2.628-2.606 3.599-1.243.972-2.844 1.623-4.616 2.084-2.096.546-5.221.477-7.193-.624-1.945-1.086-3.325-2.883-3.995-5.454-.668-2.563-.337-4.786.937-6.64 1.339-1.949 4.35-3.362 6.477-3.85 2.13-.489 5.461-.517 7.51.665 1.957 1.129 3.223 2.978 3.733 5.545Zm-3.962.813c-.369-1.743-1.133-3.01-2.305-3.792-1.172-.781-2.634-.979-4.368-.581-1.761.404-3.006 1.219-3.723 2.426-.717 1.207-.853 2.685-.421 4.429.435 1.759 1.258 3.025 2.455 3.808 1.197.783 2.607.981 4.247.605 1.699-.39 2.901-1.173 3.616-2.367.714-1.193.885-2.702.499-4.528Z" fill-rule="evenodd" data-name="Path 1214"/><path d="M423.791 207.989c.184 1.709-.04 3.253-.657 4.634-.618 1.381-1.586 2.495-2.906 3.352-1.319.856-2.965 1.361-4.764 1.661-2.128.356-5.224.006-7.08-1.267-1.832-1.256-3.043-3.171-3.481-5.79-.437-2.613.088-4.796 1.514-6.529 1.497-1.817 4.611-2.956 6.765-3.252 2.157-.296 5.468-.024 7.394 1.335 1.843 1.3 2.936 3.254 3.215 5.856Zm-4.004.455c-.212-1.768-.859-3.098-1.953-3.982-1.094-.883-2.527-1.211-4.283-.97-1.783.244-3.089.944-3.907 2.082-.818 1.137-1.083 2.596-.809 4.372.277 1.791.981 3.126 2.1 4.013 1.118.887 2.499 1.212 4.159.984 1.721-.236 2.983-.908 3.797-2.033.815-1.125 1.118-2.612.896-4.466Z" fill-rule="evenodd" data-name="Path 1215"/><path d="M438.723 215.082a447.615 447.615 0 0 0-9.094-12.066c.27 1.216.436 2.197.501 2.944l.846 9.702c-1.361.119-2.042.182-3.402.315l-1.611-16.433c1.841-.181 2.762-.264 4.604-.419a339.338 339.338 0 0 1 9.268 12.192 24.658 24.658 0 0 1-.427-3.203l-.565-9.581a286.18 286.18 0 0 1 3.587-.193l.795 16.493c-1.801.087-2.702.137-4.502.249Z" fill-rule="evenodd" data-name="Path 1216"/><path d="m446.805 214.681-.609-16.501a324.35 324.35 0 0 1 15.184-.214l-.024 2.672c-3.685-.016-7.367.014-11.052.089l.103 4.147a326.67 326.67 0 0 1 10.095-.094l-.017 2.672c-3.338-.021-6.676.01-10.012.093l.107 4.346c3.741-.075 7.477-.102 11.218-.08l-.028 2.671c-4.992-.026-9.975.04-14.965.199Z" fill-rule="evenodd" data-name="Path 1217"/><path d="M488.689 211.176c-.141 1.493-.88 2.587-2.204 3.293-1.324.707-3.088.969-5.307.81-3.054-.22-6.112-.395-9.172-.525l.705-16.497c2.946.14 5.886.304 8.829.494 2.353.164 4.107.659 5.251 1.459 1.144.799 1.648 1.884 1.524 3.246-.085.933-.455 1.694-1.106 2.283-.651.59-1.589.946-2.818 1.075 1.51.277 2.632.798 3.363 1.551.732.752 1.041 1.691.935 2.811Zm-4.42-7.593c.058-.74-.173-1.287-.696-1.64-.522-.354-1.323-.57-2.4-.644a267.979 267.979 0 0 0-4.563-.282l-.224 4.083c1.814.1 2.72.156 4.533.281 1.117.077 1.94-.032 2.472-.332.531-.3.825-.788.878-1.466Zm.54 6.98c.127-1.542-1.068-2.423-3.586-2.6-1.99-.14-2.986-.203-4.977-.312l-.26 4.728c2.02.11 3.03.174 5.049.317 1.24.087 2.161-.042 2.766-.398.605-.356.942-.933 1.008-1.735Z" fill-rule="evenodd" data-name="Path 1218"/><path d="m491.231 216.162 1.707-16.424a325.712 325.712 0 0 1 15.093 1.917l-.397 2.643a451.067 451.067 0 0 0-10.98-1.463l-.479 4.121c3.35.389 6.694.83 10.03 1.323l-.391 2.643a322.834 322.834 0 0 0-9.947-1.312l-.502 4.318c3.722.451 7.433.948 11.143 1.494l-.402 2.642a403.986 403.986 0 0 0-14.875-1.902Z" fill-rule="evenodd" data-name="Path 1219"/><path d="M521.721 220.839a385.357 385.357 0 0 0-.783-4.46 266.426 266.426 0 0 0-6.997-1.308 387.858 387.858 0 0 0-2.339 3.878 259.609 259.609 0 0 0-3.805-.623 556.033 556.033 0 0 1 9.54-15.137c1.886.338 2.827.514 4.708.879a566.463 566.463 0 0 1 3.418 17.557 253.55 253.55 0 0 0-3.742-.786Zm-2.495-14.719-.128.238c-.141.26-.307.555-.497.885-.191.331-1.327 2.128-3.343 5.419 2.131.38 3.195.579 5.32.994a400.51 400.51 0 0 0-.94-5.014l-.279-1.675-.133-.847Z" fill-rule="evenodd" data-name="Path 1220"/><path d="m537.387 210.176-3.302 13.44a274.288 274.288 0 0 0-3.763-.9l3.138-13.48c-2.426-.564-3.64-.835-6.073-1.353l.556-2.614a409.657 409.657 0 0 1 16.183 3.873l-.686 2.582a279.606 279.606 0 0 0-6.053-1.548Z" fill-rule="evenodd" data-name="Path 1221"/><path d="M557.863 225.447c-.5 1.538-1.531 2.501-3.08 2.906-1.549.405-3.559.222-6.056-.52-2.277-.678-3.964-1.544-5.066-2.629-1.103-1.086-1.649-2.41-1.63-3.982 1.523.182 2.285.278 3.81.479.011.912.32 1.659.925 2.244.606.584 1.539 1.06 2.801 1.435 2.618.78 4.14.494 4.577-.908.14-.447.104-.864-.109-1.249-.213-.385-.566-.76-1.059-1.123s-1.513-.913-2.976-1.663c-1.27-.652-2.165-1.173-2.653-1.494a9.245 9.245 0 0 1-1.285-1.008 4.39 4.39 0 0 1-.877-1.137 3.64 3.64 0 0 1-.399-1.337c-.051-.484 0-1.008.154-1.574.392-1.439 1.324-2.372 2.808-2.781 1.484-.41 3.449-.267 5.876.455 2.32.691 3.964 1.54 4.928 2.516.964.975 1.381 2.223 1.258 3.735a277.89 277.89 0 0 0-3.872-.747c.019-.738-.214-1.371-.7-1.895-.487-.525-1.284-.956-2.392-1.285-2.356-.7-3.718-.399-4.078.863-.118.413-.09.787.084 1.121.173.334.478.663.912.988.434.326 1.355.847 2.753 1.565 1.658.852 2.824 1.539 3.493 2.048.668.508 1.163 1.014 1.485 1.515.322.501.517 1.04.585 1.617.068.576-.005 1.191-.217 1.845Z" fill-rule="evenodd" data-name="Path 1222"/><path d="m383.393 238.089 3.434 13.407c-1.368.35-2.051.53-3.416.897l-3.597-13.364c-2.206.594-3.307.901-5.504 1.538l-.743-2.567a297.033 297.033 0 0 1 14.762-3.877l.614 2.6c-2.223.525-3.334.798-5.55 1.366Z" fill-rule="evenodd" data-name="Path 1223"/><path d="m404.595 247.537-1.321-6.953a266.85 266.85 0 0 0-7.357 1.494l1.497 6.918c-1.377.298-2.065.451-3.44.766l-3.688-16.094c1.453-.333 2.18-.495 3.636-.81l1.39 6.425a268.292 268.292 0 0 1 7.428-1.508l-1.227-6.459c1.462-.278 2.194-.412 3.658-.672l2.883 16.258c-1.385.246-2.077.373-3.459.635Z" fill-rule="evenodd" data-name="Path 1224"/><path d="m411.284 246.348-2.699-16.289a389.324 389.324 0 0 1 13.804-1.964l.316 2.653c-3.356.399-6.706.855-10.047 1.367l.629 4.1a300.55 300.55 0 0 1 9.164-1.258l.323 2.652c-3.034.369-6.062.785-9.083 1.248l.659 4.297c3.379-.518 6.768-.976 10.164-1.374l.312 2.653a369.925 369.925 0 0 0-13.542 1.915Z" fill-rule="evenodd" data-name="Path 1225"/><path d="m447.998 242.656-.364-10.001a38.599 38.599 0 0 1-.018-.68c-.005-.226-.001-1.2.012-2.92-.513 2.121-.884 3.602-1.128 4.44a488.86 488.86 0 0 0-2.644 9.341c-.996.051-1.495.078-2.491.137a485.903 485.903 0 0 0-3.654-8.994 437.543 437.543 0 0 0-1.634-4.288c.234 1.8.371 2.993.414 3.577l.737 9.981c-1.242.091-1.863.14-3.104.245l-1.393-16.452c1.978-.168 2.968-.243 4.948-.379a497.02 497.02 0 0 1 3.692 9.02l.319.874c.283.871.423 1.307.703 2.179.245-1.075.369-1.612.62-2.686.88-3.286 1.794-6.563 2.741-9.831 1.972-.082 2.959-.115 4.932-.166l.422 16.506c-1.244.032-1.866.052-3.11.097Z" fill-rule="evenodd" data-name="Path 1226"/><path d="M470.978 234.396c-.072 1.717-.489 3.212-1.237 4.489a7.284 7.284 0 0 1-3.079 2.893c-1.305.655-2.805.966-4.514.945-2.626-.034-4.679-.789-6.196-2.303-1.516-1.515-2.314-3.591-2.357-6.247-.044-2.648.692-4.729 2.242-6.227 1.551-1.498 3.746-2.249 6.552-2.214 2.806.036 4.984.851 6.499 2.404 1.515 1.553 2.2 3.645 2.09 6.26Zm-3.676-.132c.053-1.781-.347-3.19-1.213-4.224-.867-1.034-2.116-1.568-3.735-1.589-1.643-.021-2.918.477-3.811 1.481-.892 1.004-1.327 2.407-1.32 4.204.008 1.812.462 3.237 1.349 4.28.887 1.044 2.086 1.569 3.611 1.588 1.581.02 2.809-.46 3.697-1.453.888-.994 1.367-2.421 1.422-4.287Z" fill-rule="evenodd" data-name="Path 1227"/><path d="M483.444 243.545a430.702 430.702 0 0 0-6.498-13.229c.073 1.241.085 2.236.038 2.984l-.603 9.72a247.627 247.627 0 0 0-3.107-.176l.845-16.49c1.691.086 2.536.136 4.225.246a432.956 432.956 0 0 1 6.642 13.376 26.895 26.895 0 0 1 .074-3.229l.862-9.559c1.312.119 1.967.181 3.278.314l-1.661 16.428a234.283 234.283 0 0 0-4.095-.385Z" fill-rule="evenodd" data-name="Path 1228"/><path d="M502.292 245.806a292.203 292.203 0 0 0-4.97-8.368c-.924.507-1.384.762-2.3 1.276l-.746 5.977c-1.394-.174-2.09-.257-3.485-.414l1.847-16.408c1.474.166 2.211.253 3.683.437l-.927 7.431c2.907-2.171 5.864-4.266 8.842-6.337 1.713.259 2.569.395 4.278.679a278.96 278.96 0 0 0-8.464 5.768 289.88 289.88 0 0 1 6.335 10.617 236.992 236.992 0 0 0-4.093-.658Z" fill-rule="evenodd" data-name="Path 1229"/><path d="m508.217 246.778 2.843-16.265c4.588.826 9.152 1.732 13.708 2.721l-.581 2.608a301.359 301.359 0 0 0-9.96-2.04l-.764 4.077c3.039.57 6.069 1.186 9.089 1.85l-.574 2.609a299.208 299.208 0 0 0-9.007-1.833l-.801 4.274c3.371.631 6.73 1.322 10.076 2.072l-.585 2.607a369.765 369.765 0 0 0-13.444-2.68Z" fill-rule="evenodd" data-name="Path 1230"/><path d="m533.975 245.493-1.73 6.548a254.207 254.207 0 0 0-3.407-.878l1.649-6.569a447.75 447.75 0 0 0-3.798-10.926c1.522.348 2.283.528 3.801.896a308.128 308.128 0 0 1 2.405 7.801 295.316 295.316 0 0 1 5.927-5.654c1.51.412 2.264.622 3.77 1.054a432.216 432.216 0 0 0-8.617 7.728Z" fill-rule="evenodd" data-name="Path 1231"/></g></svg>